<svg id="Layer_1" data-name="Layer 1" xmlns="http://www.w3.org/2000/svg" viewBox="0 0 312.5 69.3"><defs><style>.cls-1{fill:#0e6cf1;}.cls-2{fill:#2437bf;}</style></defs><polygon class="cls-1" points="25.5 46.6 9.2 69.3 21.3 69.3 31.9 55.2 25.5 46.6"/><polygon class="cls-1" points="66.2 59.5 47.4 34.6 66.1 9.8 58.8 0.1 40.6 25.5 21.5 0 9.3 0 58.9 69.2 66.2 59.5"/><polygon class="cls-2" points="44.6 0 34.1 13.9 40.6 22.5 56.8 0 44.6 0"/><polygon class="cls-2" points="44.7 69.3 56.9 69.3 7.2 0.1 0 9.8 18.6 34.6 0 59.3 7.1 69.2 25.4 43.6 44.7 69.3"/><path class="cls-1" d="M83.1,55.8a19.9,19.9,0,0,1-15-6.4A20.65,20.65,0,0,1,64,42.6a22.6,22.6,0,0,1,4.2-23.1,19.73,19.73,0,0,1,6.5-4.6,18.72,18.72,0,0,1,8.4-1.7,19.9,19.9,0,0,1,15,6.4,21,21,0,0,1,4.2,6.8,22.77,22.77,0,0,1,1.5,8.2,22.2,22.2,0,0,1-1.5,8.1A20.8,20.8,0,0,1,91.5,54.1,21.63,21.63,0,0,1,83.1,55.8ZM69.5,34.6a15.61,15.61,0,0,0,1.1,6,14.66,14.66,0,0,0,2.9,4.8,15.18,15.18,0,0,0,4.3,3.2,12.3,12.3,0,0,0,10.6,0,14.1,14.1,0,0,0,4.4-3.3,13.61,13.61,0,0,0,2.9-4.9,17.8,17.8,0,0,0,1.1-6,15.08,15.08,0,0,0-1.1-5.9,18.81,18.81,0,0,0-2.9-4.9,13.21,13.21,0,0,0-4.4-3.3,12.33,12.33,0,0,0-5.3-1.2,12,12,0,0,0-5.3,1.2,13.74,13.74,0,0,0-4.3,3.3,15.21,15.21,0,0,0-2.9,4.9A19.22,19.22,0,0,0,69.5,34.6Z"/><path class="cls-1" d="M169.9,55H163V32c0-4.3-.7-7.5-2.1-9.5a7.2,7.2,0,0,0-6.2-3.1,11.33,11.33,0,0,0-7.6,3,17.1,17.1,0,0,0-4.8,7.8V55h-6.9V32c0-4.4-.7-7.6-2-9.6a7.06,7.06,0,0,0-6.1-3,11.35,11.35,0,0,0-7.5,2.9,15.6,15.6,0,0,0-4.9,7.9V55H108V14h6.3v8.8a18.23,18.23,0,0,1,6.5-7,16.71,16.71,0,0,1,9-2.5,11.25,11.25,0,0,1,8.2,2.8,11.72,11.72,0,0,1,3.7,7.2c3.7-6.7,8.9-10,15.6-10a11.94,11.94,0,0,1,5.9,1.3,9.41,9.41,0,0,1,3.8,3.6,15.06,15.06,0,0,1,2,5.5,38.72,38.72,0,0,1,.6,6.8l.3,24.5Z"/><path class="cls-1" d="M195.3,55.8a20.7,20.7,0,0,1-8.5-1.7,20.09,20.09,0,0,1-6.6-4.6,21.33,21.33,0,0,1-4.3-6.8,23.16,23.16,0,0,1,0-16.4,20.52,20.52,0,0,1,19.4-13,20,20,0,0,1,19,13,19.43,19.43,0,0,1,1.4,7.9v1.6c0,.4-.1.7-.1,1.1h-34a16,16,0,0,0,1.4,5.6,13.21,13.21,0,0,0,3.1,4.3,12.26,12.26,0,0,0,4.3,2.8,12.41,12.41,0,0,0,5.1,1,15.93,15.93,0,0,0,3.7-.5,14.42,14.42,0,0,0,3.4-1.4,15.06,15.06,0,0,0,2.8-2.1,8.46,8.46,0,0,0,1.8-2.8l6,1.7a16.22,16.22,0,0,1-2.8,4.2,18.4,18.4,0,0,1-4.1,3.3,19.7,19.7,0,0,1-5.2,2.2A35.21,35.21,0,0,1,195.3,55.8Zm14.1-24a14.24,14.24,0,0,0-4.5-9.6,14,14,0,0,0-14.6-2.7,13.48,13.48,0,0,0-4.3,2.8,12.64,12.64,0,0,0-3,4.2,16.57,16.57,0,0,0-1.4,5.3Z"/><path class="cls-1" d="M242.2,52.9l-1.6.8c-.7.3-1.5.6-2.3.9s-1.86.51-2.8.7a17.17,17.17,0,0,1-3.2.3,10.31,10.31,0,0,1-6.5-2.1,7.62,7.62,0,0,1-2.8-6.4V19.4h-5.6V14H223V.3h6.9V14h9.2v5.4h-9.2V44.8a4.12,4.12,0,0,0,1.5,3.3,5,5,0,0,0,3.1,1,9.37,9.37,0,0,0,3.7-.7,9.53,9.53,0,0,0,2.3-1.1Z"/><path class="cls-1" d="M268.3,20a17.25,17.25,0,0,0-9.1,2.7,13.37,13.37,0,0,0-5.6,7V55h-6.9V14h6.4v9.5a19.54,19.54,0,0,1,5.6-6.9,14.19,14.19,0,0,1,7.3-3h1.3a2.74,2.74,0,0,1,.9.1l.1,6.3Z"/><path class="cls-1" d="M279.8,62.8a13.42,13.42,0,0,0,2,.2c.7,0,1.2.1,1.6.1a3.66,3.66,0,0,0,3.6-2.2,56.94,56.94,0,0,0,2.4-5.9L272.1,14h7.1l14,34.8L305.9,14h6.6L293.8,62.4a11.48,11.48,0,0,1-3.6,4.8,11,11,0,0,1-7,2.1,7.57,7.57,0,0,1-1.5-.1l-1.8-.3Z"/></svg>